<?xml version="1.0" standalone="no"?>
<!DOCTYPE svg PUBLIC "-//W3C//DTD SVG 20010904//EN"
 "http://www.w3.org/TR/2001/REC-SVG-20010904/DTD/svg10.dtd">
<svg version="1.0" xmlns="http://www.w3.org/2000/svg"
 width="260.000000pt" height="260.000000pt" viewBox="0 0 260.000000 260.000000"
 preserveAspectRatio="xMidYMid meet">
<metadata>
Created by potrace 1.14, written by Peter Selinger 2001-2017
</metadata>
<g transform="translate(0.000000,260.000000) scale(0.100000,-0.100000)"
fill="#000000" stroke="none">
<path d="M1268 2573 c-2 -17 -9 -28 -18 -28 -10 0 -16 -12 -17 -35 -1 -19 0
-29 3 -22 3 6 10 12 15 12 14 0 11 -38 -3 -43 -8 -3 -5 -6 5 -6 12 -1 17 -7
15 -18 -5 -25 -48 -19 -70 10 -18 22 -18 22 -18 -15 0 -20 -4 -40 -10 -43 -5
-3 -10 -15 -10 -26 0 -16 -5 -18 -27 -13 -22 6 -25 4 -20 -10 4 -10 1 -16 -8
-16 -11 0 -14 12 -14 48 3 130 -4 156 -16 63 -4 -30 -13 -61 -21 -69 -11 -10
-13 -26 -8 -58 5 -37 4 -44 -10 -44 -9 0 -19 -7 -22 -15 -10 -26 -24 -5 -24
35 0 21 -4 42 -10 45 -11 7 -14 -18 -12 -80 2 -27 -1 -36 -7 -26 -16 25 -41 4
-41 -34 0 -20 -4 -34 -8 -31 -15 9 -35 -63 -22 -79 17 -21 2 -62 -27 -70 -20
-5 -24 -11 -20 -30 6 -34 -11 -32 -19 3 -9 41 -12 49 -13 31 -1 -18 -27 -33
-42 -23 -5 3 -9 -3 -9 -13 0 -13 -12 -23 -35 -32 -41 -14 -44 -29 -13 -56 l23
-19 -51 -16 c-28 -8 -58 -21 -66 -27 -8 -7 -18 -10 -22 -6 -4 4 -9 -2 -12 -12
-5 -20 -54 -51 -54 -34 0 20 -30 -6 -43 -38 -13 -33 -14 -34 -31 -17 -15 14
-19 15 -27 3 -5 -8 -9 -18 -9 -22 0 -5 -4 -6 -10 -2 -5 3 -16 -7 -24 -22 -14
-26 -15 -27 -16 -5 0 21 -30 33 -30 11 0 -5 -4 -7 -10 -4 -5 3 -10 -3 -10 -13
0 -11 -7 -23 -15 -26 -11 -4 -17 3 -22 24 -7 39 -19 38 -27 -2 -9 -41 -22 -22
-28 37 -3 35 0 40 20 43 12 2 22 8 22 13 0 5 9 9 19 9 24 0 33 13 25 35 -6 14
-9 14 -23 2 -9 -8 -29 -17 -44 -19 -26 -5 -28 -3 -22 19 17 70 17 84 1 102
-11 13 -14 21 -7 26 15 8 14 48 -1 63 -28 28 -144 -220 -184 -396 -60 -264
-39 -518 67 -786 41 -105 65 -136 105 -136 13 0 24 -3 24 -7 0 -5 18 -9 40
-11 32 -2 41 2 51 20 7 12 17 28 24 34 17 18 106 27 139 14 31 -11 50 -5 26
10 -28 18 2 24 58 12 91 -19 92 -18 88 28 -3 30 0 40 10 40 12 0 12 4 3 21 -7
14 -17 19 -30 16 -20 -5 -113 42 -174 87 -37 28 -65 39 -65 26 0 -24 -38 -5
-106 53 -40 34 -73 64 -73 67 -1 3 12 12 28 21 29 17 29 17 131 -53 57 -39
116 -75 131 -80 16 -5 27 -15 26 -21 -1 -7 10 -13 26 -15 15 -2 25 -8 22 -13
-6 -8 8 -13 28 -10 4 1 10 -5 13 -13 3 -8 13 -12 25 -9 10 3 19 0 19 -6 0 -6
-6 -11 -12 -12 -7 0 -3 -5 9 -11 12 -6 24 -22 28 -35 5 -23 9 -25 43 -18 65
14 96 9 141 -19 l44 -28 -5 67 c-3 36 -8 69 -12 72 -3 3 -38 6 -78 7 l-73 1 2
-27 c1 -16 -2 -28 -7 -28 -5 0 -10 12 -12 28 -2 22 -9 28 -33 30 -16 2 -35 10
-42 18 -9 13 -15 13 -35 3 -22 -12 -22 -11 -8 7 8 10 23 26 33 35 17 14 17 16
2 29 -14 12 -18 12 -26 -1 -7 -12 -9 -12 -9 1 0 10 -3 11 -11 3 -8 -8 -20 -8
-36 -2 -14 5 -29 7 -34 3 -5 -3 -9 2 -9 10 0 9 8 16 17 16 13 0 14 3 5 12 -17
17 -15 29 3 22 8 -4 15 -11 15 -18 0 -6 14 -17 30 -23 36 -13 37 -10 8 17 -19
18 -20 22 -8 30 8 5 11 10 6 10 -5 0 -1 9 8 19 16 17 16 22 2 55 -8 20 -11 36
-5 36 5 0 9 -4 9 -9 0 -5 13 -5 29 2 21 7 57 7 137 -4 l109 -14 -60 -5 c-54
-5 -48 -6 60 -14 156 -12 181 -14 237 -15 l46 -1 -5 -74 c-7 -85 12 -166 39
-174 15 -4 16 -14 11 -86 -3 -44 -8 -83 -10 -86 -2 -2 10 -9 28 -15 31 -11 34
-15 45 -82 6 -39 14 -75 17 -80 3 -5 8 -39 11 -76 5 -65 5 -67 -17 -64 -12 2
-17 2 -12 0 6 -2 16 -12 22 -22 10 -16 8 -19 -10 -19 -51 -2 -93 -22 -47 -22
19 0 21 -3 12 -12 -7 -7 -12 -19 -12 -29 0 -12 -6 -15 -24 -12 -13 3 -27 0
-30 -6 -4 -7 -1 -9 8 -5 10 4 18 -5 25 -33 6 -21 11 -43 11 -49 0 -13 32 -24
73 -24 15 0 27 -4 27 -10 0 -6 -27 -10 -60 -10 -33 0 -60 -4 -60 -8 0 -5 -13
-7 -30 -4 -27 4 -30 1 -30 -21 0 -17 7 -28 20 -32 11 -3 20 -13 20 -21 0 -8 5
-14 10 -14 24 0 7 -20 -17 -21 -25 0 -26 -1 -8 -9 29 -12 197 -11 290 3 62 9
81 16 83 29 2 13 -1 16 -12 12 -22 -8 -22 42 0 54 15 8 15 12 0 41 -9 17 -21
29 -26 26 -5 -3 -12 0 -16 6 -5 9 0 10 17 6 13 -4 39 -7 57 -7 25 0 32 -4 32
-19 0 -10 6 -24 14 -30 11 -10 15 -4 18 29 3 37 -4 51 -16 32 -6 -11 -64 -3
-72 9 -3 5 -18 9 -34 9 -25 0 -29 4 -35 40 -4 21 -4 44 0 50 3 5 1 10 -4 10
-18 0 -13 28 7 39 9 6 12 11 6 11 -16 0 -27 46 -24 100 2 49 7 61 18 44 4 -7
16 -8 27 -4 26 9 80 -26 66 -43 -5 -7 -11 -23 -14 -37 -4 -25 -4 -25 -6 3 -1
31 -31 39 -31 8 0 -10 7 -24 15 -31 21 -18 19 -28 -7 -32 -13 -3 4 -8 37 -12
33 -5 65 -12 70 -16 15 -11 145 -19 145 -9 0 17 31 9 64 -16 37 -28 51 -32 43
-11 -7 19 60 27 75 9 8 -10 15 -9 36 8 l27 20 16 -20 c20 -25 49 -28 49 -5 0
10 -6 14 -15 11 -8 -4 -17 -1 -21 5 -5 8 9 9 49 5 l55 -5 64 66 c77 80 143
167 186 243 38 66 38 69 12 69 -11 0 -20 4 -20 9 0 4 10 6 23 4 28 -6 36 4 70
85 31 74 33 82 11 82 -13 0 -14 -3 -5 -14 10 -12 4 -16 -36 -21 -26 -3 -63 -7
-81 -10 -23 -3 -35 1 -39 11 -3 7 -10 14 -17 14 -6 0 -17 9 -24 20 -7 11 -18
20 -25 20 -6 0 -20 14 -29 30 -15 26 -15 32 -4 36 8 3 23 1 35 -5 11 -6 30
-11 43 -11 13 0 29 -5 36 -12 9 -9 12 -9 12 0 0 8 7 9 27 1 15 -5 39 -9 54 -7
14 1 33 -5 43 -15 27 -26 34 -21 50 35 33 120 40 178 40 338 0 180 -13 263
-63 413 -162 478 -597 828 -1090 875 -78 8 -80 7 -86 -15 -8 -32 -35 -30 -35
2 0 20 -5 25 -24 25 -19 0 -25 -6 -28 -27z m92 -114 c0 -5 -4 -9 -10 -9 -5 0
-10 7 -10 16 0 8 5 12 10 9 6 -3 10 -10 10 -16z m-200 -174 c0 -8 -4 -15 -10
-15 -5 0 -10 7 -10 15 0 8 5 15 10 15 6 0 10 -7 10 -15z m566 -682 c-7 -7 -26
7 -26 19 0 6 6 6 15 -2 9 -7 13 -15 11 -17z m-325 -113 c10 -6 19 -19 19 -30
0 -11 12 -25 27 -32 43 -20 41 -45 -2 -54 -43 -8 -72 11 -42 27 30 17 2 86
-30 74 -18 -6 -44 5 -37 16 7 12 41 11 65 -1z m-1067 -15 c3 -9 0 -15 -9 -15
-16 0 -27 14 -18 24 10 10 21 7 27 -9z m186 1 c0 -3 -4 -8 -10 -11 -5 -3 -10
-1 -10 4 0 6 5 11 10 11 6 0 10 -2 10 -4z m807 -56 c3 -36 2 -36 -42 -7 -45
28 -44 37 3 37 34 0 37 -2 39 -30z m773 4 c0 -8 -4 -12 -10 -9 -5 3 -10 10
-10 16 0 5 5 9 10 9 6 0 10 -7 10 -16z m-1565 -4 c3 -5 -1 -10 -10 -10 -9 0
-13 5 -10 10 3 6 8 10 10 10 2 0 7 -4 10 -10z m1310 -21 c8 -36 1 -47 -20 -29
-10 9 -12 16 -5 25 6 8 6 15 -2 23 -9 9 -8 12 4 12 10 0 19 -12 23 -31z
m-1395 -43 c15 -19 10 -20 -25 -4 -14 6 -25 17 -25 25 0 16 29 4 50 -21z m-86
-1 c7 -19 -14 -31 -24 -15 -5 9 -9 9 -14 1 -11 -17 -36 -13 -30 4 4 8 12 15
20 15 8 0 14 4 14 10 0 13 27 1 34 -15z m151 -12 c0 -6 3 -15 8 -19 4 -4 7
-17 7 -30 0 -12 6 -24 13 -27 6 -2 9 -8 5 -12 -4 -4 -45 -2 -91 5 -46 6 -97
10 -113 8 -34 -4 -45 15 -12 20 13 2 31 11 41 20 9 8 42 17 71 20 44 3 53 7
49 20 -4 10 -1 13 8 10 8 -3 14 -10 14 -15z m1535 -18 c-7 -8 -17 -12 -22 -9
-6 4 -5 10 3 15 22 14 33 10 19 -6z m-736 -3 c6 -11 -70 -45 -87 -39 -6 2 6
13 28 25 45 24 52 25 59 14z m157 -19 c27 -16 38 -33 22 -33 -11 0 -70 49 -60
50 5 0 22 -8 38 -17z m441 -13 c10 -16 24 -20 66 -20 36 0 54 4 58 14 7 18 30
10 64 -21 29 -27 28 -27 73 -8 34 14 36 14 30 -2 -4 -10 -14 -23 -22 -30 -14
-10 -14 -13 3 -32 19 -21 19 -21 -1 -21 -11 0 -28 -9 -38 -20 -16 -18 -20 -19
-35 -5 -9 8 -20 12 -23 8 -4 -3 -8 0 -8 8 -2 27 -5 34 -24 66 -23 38 -40 42
-55 13 -6 -12 -21 -20 -36 -20 -14 0 -22 4 -19 10 3 6 -1 10 -9 10 -8 0 -20 8
-25 18 -6 9 -11 13 -11 8 0 -6 10 -21 23 -34 l22 -24 -22 -18 c-12 -9 -19 -20
-16 -24 4 -3 17 4 30 16 16 15 23 17 23 7 0 -15 52 -49 75 -49 12 0 35 -29 35
-43 0 -12 -34 -16 -46 -6 -11 9 -19 8 -32 -5 -24 -21 -27 -20 -65 8 -45 32
-62 41 -53 28 8 -13 -24 -32 -53 -32 -12 0 -20 -3 -20 -7 5 -29 -3 -55 -14
-50 -7 3 -24 -3 -38 -13 -19 -15 -22 -21 -11 -31 21 -22 14 -29 -30 -29 -41 0
-41 0 -23 -20 28 -31 10 -35 -28 -6 -19 14 -37 26 -41 26 -3 0 -15 -14 -26
-32 -10 -17 -33 -37 -49 -44 -28 -12 -31 -11 -31 4 0 16 23 101 36 132 12 28
14 65 5 85 -9 19 -31 97 -31 107 0 3 47 6 105 7 103 1 106 1 131 -26 14 -16
23 -22 19 -15 -4 8 4 12 29 12 20 0 36 5 36 10 0 6 14 17 31 24 26 11 28 14
13 20 -10 4 -21 1 -26 -6 -5 -9 -8 -9 -8 -1 0 6 7 18 15 27 8 8 15 22 15 30 0
22 17 20 32 -4z m-1332 -30 c0 -5 -5 -10 -11 -10 -5 0 -8 -4 -4 -9 3 -5 1 -12
-5 -16 -11 -7 -13 5 -4 29 7 18 24 22 24 6z m1254 1 c3 -5 -1 -11 -9 -15 -8
-3 -15 -12 -15 -21 0 -17 -9 -19 -29 -6 -10 7 -10 12 5 30 19 22 39 27 48 12z
m-1549 -91 c3 -5 1 -10 -4 -10 -6 0 -11 5 -11 10 0 6 2 10 4 10 3 0 8 -4 11
-10z m642 -6 c-3 -3 -12 -4 -19 -1 -8 3 -5 6 6 6 11 1 17 -2 13 -5z m-404
-119 c7 -16 -8 -29 -23 -20 -15 9 -12 35 4 35 8 0 16 -7 19 -15z m-3 -45 c0
-5 -4 -10 -9 -10 -6 0 -13 5 -16 10 -3 6 1 10 9 10 9 0 16 -4 16 -10z m721
-27 c-8 -15 -10 -15 -11 -2 0 17 10 32 18 25 2 -3 -1 -13 -7 -23z m-8 -36 c3
-8 1 -20 -4 -28 -6 -10 -9 -7 -9 14 0 29 5 35 13 14z m807 -12 c0 -19 26 -19
78 -1 40 15 41 14 67 -17 14 -18 24 -24 21 -14 -3 9 -1 17 5 17 19 0 49 -21
49 -34 0 -7 11 -23 25 -36 30 -28 32 -46 6 -53 -14 -3 -26 5 -44 30 -21 30
-25 32 -29 15 -4 -14 -18 -21 -52 -26 -51 -8 -68 -3 -60 19 4 9 -1 13 -14 12
-12 0 -20 -4 -20 -7 2 -18 -4 -19 -18 -5 -9 9 -23 14 -31 11 -7 -3 -16 1 -19
9 -9 22 -19 18 -33 -12 l-13 -28 -22 28 c-12 15 -27 27 -34 27 -7 0 -37 -18
-67 -40 -30 -22 -59 -40 -65 -40 -5 0 -10 -5 -10 -12 0 -6 -10 -2 -23 10 -13
12 -31 22 -41 22 -16 0 -16 2 -6 15 24 29 -3 38 -55 20 -31 -10 -52 -12 -58
-6 -6 6 -19 6 -34 0 -23 -9 -23 -8 -7 14 10 13 29 22 46 23 15 1 36 9 46 18
23 20 61 21 68 1 5 -12 9 -12 28 0 12 8 34 12 50 9 15 -2 34 0 41 6 9 8 17 7
28 -5 16 -16 42 -21 33 -7 -10 17 35 43 64 37 16 -3 31 -2 35 4 10 17 65 14
65 -4z m-627 -262 c-6 -29 -4 -193 2 -203 4 -6 2 -17 -4 -24 -6 -8 -10 -29 -9
-47 2 -22 -1 -34 -9 -34 -10 0 -14 42 -18 163 l-4 163 22 -3 c12 -2 21 -9 20
-15z m107 4 c0 -8 11 -24 24 -36 25 -24 25 -51 0 -51 -8 0 -14 -9 -14 -21 0
-15 -5 -20 -22 -17 -21 3 -23 8 -20 53 2 28 6 58 8 68 6 20 24 23 24 4z m485
-142 c-62 -10 -66 -12 -35 -17 27 -4 22 -5 -23 -6 -37 -1 -56 2 -52 8 4 6 -38
10 -119 10 -77 0 -126 -4 -126 -10 0 -5 -16 -10 -35 -10 -25 0 -35 4 -35 15 0
11 7 14 23 10 12 -3 32 -2 44 2 12 4 113 9 225 9 187 1 198 0 133 -11z m148
-22 c-13 -2 -33 -2 -45 0 -13 2 -3 4 22 4 25 0 35 -2 23 -4z m-476 -60 c-3
-10 -5 -4 -5 12 0 17 2 24 5 18 2 -7 2 -21 0 -30z m63 -73 c0 -5 -7 -10 -15
-10 -8 0 -15 5 -15 10 0 6 7 10 15 10 8 0 15 -4 15 -10z m95 -10 c-3 -5 -10
-10 -16 -10 -5 0 -9 5 -9 10 0 6 7 10 16 10 8 0 12 -4 9 -10z m82 -6 c-3 -3
-12 -4 -19 -1 -8 3 -5 6 6 6 11 1 17 -2 13 -5z m33 -14 c0 -5 -4 -10 -10 -10
-5 0 -10 5 -10 10 0 6 5 10 10 10 6 0 10 -4 10 -10z m-537 -147 c-7 -2 -19 -2
-25 0 -7 3 -2 5 12 5 14 0 19 -2 13 -5z m-163 -132 c-7 -11 -9 -3 -9 29 1 42
1 43 9 16 6 -17 5 -36 0 -45z m250 35 c0 -19 -4 -38 -10 -41 -6 -4 -10 10 -10
34 0 23 5 41 10 41 6 0 10 -15 10 -34z"/>
<path d="M2118 1223 c6 -2 18 -2 25 0 6 3 1 5 -13 5 -14 0 -19 -2 -12 -5z"/>
<path d="M1620 1200 c0 -5 17 -10 38 -9 33 1 34 2 12 9 -36 11 -50 11 -50 0z"/>
<path d="M1717 1173 c-10 -9 -9 -23 2 -23 5 0 11 7 15 15 5 15 -5 20 -17 8z"/>
<path d="M1936 1161 c-7 -11 12 -26 42 -34 28 -7 28 7 0 27 -26 18 -35 20 -42
7z"/>
<path d="M1088 902 c-22 -4 -23 -19 -3 -38 13 -14 15 -13 15 7 0 18 2 19 15 9
8 -7 15 -8 15 -2 0 15 -23 29 -42 24z"/>
<path d="M698 733 c-27 -7 -22 -22 10 -29 15 -3 33 -7 40 -10 8 -2 7 5 -4 21
-9 14 -19 24 -23 24 -3 -1 -14 -3 -23 -6z"/>
<path d="M715 662 c-20 -14 -10 -36 23 -49 30 -12 32 -12 32 8 0 15 -5 19 -19
14 -11 -3 -21 0 -24 9 -4 9 1 17 11 19 13 4 13 5 2 6 -8 0 -20 -3 -25 -7z"/>
<path d="M892 654 c-13 -9 -29 -13 -37 -10 -8 3 -17 1 -21 -5 -3 -5 -14 -7
-25 -4 -11 4 -19 2 -19 -4 0 -6 6 -11 14 -11 8 0 16 -6 19 -12 3 -10 9 -10 27
0 12 8 19 9 15 3 -8 -14 47 -15 61 -2 5 5 18 11 28 13 19 3 19 4 2 21 -10 9
-21 15 -26 12 -5 -3 -10 -1 -12 5 -2 6 -12 4 -26 -6z"/>
<path d="M635 620 c-4 -6 6 -10 22 -11 25 0 26 -1 8 -9 -11 -5 -37 -9 -57 -9
-20 -1 -40 -6 -43 -11 -5 -8 -11 -7 -21 1 -7 6 -11 15 -8 20 3 5 -5 9 -16 9
-16 0 -20 -5 -16 -15 3 -8 0 -16 -7 -16 -7 -1 2 -5 18 -9 30 -8 30 -8 -8 -9
-21 0 -36 -4 -34 -8 6 -10 -69 -10 -79 0 -4 4 11 7 34 7 31 0 42 4 42 15 0 18
-16 20 -23 3 -4 -9 -8 -10 -14 -2 -11 15 -51 24 -55 12 -2 -5 -37 -13 -77 -16
l-74 -7 42 -52 c37 -47 46 -53 79 -53 20 0 44 -5 52 -10 11 -7 3 -10 -30 -10
l-45 -1 79 -74 c43 -41 84 -75 91 -75 7 0 20 -11 29 -25 12 -18 25 -25 47 -25
30 0 30 1 27 42 -3 42 -2 43 32 49 19 4 31 7 25 8 -44 9 -55 9 -60 1 -4 -6
-11 -7 -17 -4 -6 4 -14 0 -19 -7 -6 -11 -11 -11 -21 -1 -9 9 -9 12 5 12 22 0
22 36 0 44 -27 11 5 27 39 20 14 -3 29 0 33 6 3 5 11 8 16 5 5 -4 9 -1 9 4 0
6 7 11 15 11 8 0 15 7 15 15 0 13 -7 15 -35 9 -28 -5 -35 -3 -35 10 0 11 -9
16 -27 17 -66 3 82 19 194 21 68 2 123 6 123 11 0 7 -32 10 -80 8 -14 -1 -32
3 -39 8 -12 8 -11 13 10 31 21 18 21 20 3 11 -18 -9 -23 -7 -27 9 -4 14 -14
20 -34 20 -15 0 -37 7 -47 15 -23 18 -33 19 -41 5z m-44 -98 c-7 -2 -18 1 -23
6 -8 8 -4 9 13 5 13 -4 18 -8 10 -11z m-95 -179 c-10 -10 -19 5 -10 18 6 11 8
11 12 0 2 -7 1 -15 -2 -18z"/>
<path d="M818 573 c7 -3 16 -2 19 1 4 3 -2 6 -13 5 -11 0 -14 -3 -6 -6z"/>
<path d="M1531 474 c0 -11 3 -14 6 -6 3 7 2 16 -1 19 -3 4 -6 -2 -5 -13z"/>
<path d="M973 453 c9 -2 23 -2 30 0 6 3 -1 5 -18 5 -16 0 -22 -2 -12 -5z"/>
<path d="M807 430 c3 -10 12 -25 21 -32 14 -12 14 -10 3 11 -11 19 -11 25 0
32 10 6 8 9 -8 9 -16 0 -20 -5 -16 -20z"/>
<path d="M721 386 c2 -2 18 -6 34 -10 22 -5 26 -4 15 4 -14 9 -59 15 -49 6z"/>
<path d="M644 365 c8 -8 17 -15 20 -15 3 0 3 7 0 15 -4 8 -13 15 -21 15 -12 0
-12 -2 1 -15z"/>
<path d="M1070 290 c-47 -4 -55 -8 -55 -25 0 -13 8 -21 23 -23 22 -3 32 -22
10 -22 -6 0 -9 -2 -6 -5 3 -3 16 -1 29 4 13 5 18 10 12 10 -7 1 -13 6 -13 11
0 6 18 10 40 10 42 0 48 7 28 31 -10 10 -28 13 -68 9z"/>
<path d="M2047 283 c-4 -3 -26 -7 -49 -7 -23 -1 -43 -6 -45 -13 -3 -8 4 -13
19 -13 18 0 20 2 8 10 -12 8 -11 10 7 10 12 0 29 -10 37 -22 l16 -22 0 22 c0
24 15 30 23 10 3 -7 4 -3 4 10 -1 22 -8 28 -20 15z"/>
<path d="M1680 268 c36 -16 95 -14 85 2 -3 6 -30 10 -58 9 -46 0 -49 -1 -27
-11z"/>
<path d="M1870 261 c0 -17 30 -40 46 -34 8 3 14 6 12 7 -2 1 -15 10 -30 19
-16 10 -28 13 -28 8z"/>
<path d="M1761 234 c0 -11 3 -14 6 -6 3 7 2 16 -1 19 -3 4 -6 -2 -5 -13z"/>
<path d="M1811 223 c15 -25 26 -28 49 -13 12 8 10 10 -10 10 -15 0 -32 6 -39
13 -11 9 -10 7 0 -10z"/>
<path d="M1190 195 c0 -24 5 -35 15 -35 10 0 15 11 15 35 0 24 -5 35 -15 35
-10 0 -15 -11 -15 -35z"/>
<path d="M988 203 c6 -2 18 -2 25 0 6 3 1 5 -13 5 -14 0 -19 -2 -12 -5z"/>
<path d="M1698 203 c7 -3 16 -2 19 1 4 3 -2 6 -13 5 -11 0 -14 -3 -6 -6z"/>
<path d="M870 190 l-35 -7 32 -2 c17 0 35 4 38 9 3 6 5 9 3 9 -2 -1 -19 -5
-38 -9z"/>
<path d="M938 193 c7 -3 16 -2 19 1 4 3 -2 6 -13 5 -11 0 -14 -3 -6 -6z"/>
<path d="M1843 173 c-18 -7 -16 -23 2 -23 8 0 15 7 15 15 0 8 -1 15 -2 14 -2
0 -9 -3 -15 -6z"/>
<path d="M1656 151 c-3 -4 -2 -28 3 -52 5 -24 9 -34 10 -23 1 12 8 24 16 28
23 8 19 56 -4 56 -11 0 -22 -4 -25 -9z"/>
<path d="M1833 133 c9 -2 23 -2 30 0 6 3 -1 5 -18 5 -16 0 -22 -2 -12 -5z"/>
<path d="M1610 55 c0 -8 5 -15 10 -15 6 0 10 7 10 15 0 8 -4 15 -10 15 -5 0
-10 -7 -10 -15z"/>
</g>
</svg>
