<svg width="500" height="471" viewBox="0 0 500 471" fill="none" xmlns="http://www.w3.org/2000/svg">
    <path d="M500 235.504C500 365.565 394.655 471 264.706 471C134.757 471 0 256.648 0 126.588C0 -3.47279 134.757 0.00899224 264.706 0.00899224C394.655 0.00899224 500 105.444 500 235.504Z" fill="#C5C5C5"/>
    <path d="M433 235.003C433 330.547 355.888 408 260.765 408C165.642 408 67 250.536 67 154.992C67 59.4489 165.642 62.0066 260.765 62.0066C355.888 62.0066 433 139.46 433 235.003Z" fill="#696969"/>
    <path d="M433 235.003C433 330.547 355.888 408 260.765 408C165.642 408 67 250.536 67 154.992C67 59.4489 165.642 62.0066 260.765 62.0066C355.888 62.0066 433 139.46 433 235.003Z" fill="#696969"/>
    <path d="M433 235.003C433 330.547 355.888 408 260.765 408C165.642 408 67 250.536 67 154.992C67 59.4489 165.642 62.0066 260.765 62.0066C355.888 62.0066 433 139.46 433 235.003Z" fill="#696969"/>
    <path d="M363 235.002C363 293.543 315.384 341 256.647 341C197.91 341 137 244.519 137 185.978C137 127.437 197.91 129.004 256.647 129.004C315.384 129.004 363 176.461 363 235.002Z" fill="#262626"/>
    <path d="M363 235.002C363 293.543 315.384 341 256.647 341C197.91 341 137 244.519 137 185.978C137 127.437 197.91 129.004 256.647 129.004C315.384 129.004 363 176.461 363 235.002Z" fill="#262626"/>
    <path d="M363 235.002C363 293.543 315.384 341 256.647 341C197.91 341 137 244.519 137 185.978C137 127.437 197.91 129.004 256.647 129.004C315.384 129.004 363 176.461 363 235.002Z" fill="#262626"/>
</svg>
